<?xml version="1.0"?>
<svg xmlns="http://www.w3.org/2000/svg" xmlns:xlink="http://www.w3.org/1999/xlink" xmlns:svgjs="http://svgjs.com/svgjs" version="1.1" width="512" height="512" x="0" y="0" viewBox="0 0 24 24" style="enable-background:new 0 0 512 512" xml:space="preserve" class=""><g><path xmlns="http://www.w3.org/2000/svg" d="m7.625 8.25h-6.25c-.345 0-.625-.28-.625-.625v-6.25c0-.345.28-.625.625-.625h6.25c.345 0 .625.28.625.625v6.25c0 .345-.28.625-.625.625z" fill="#2196f3" data-original="#2196f3" style="" class=""/><path xmlns="http://www.w3.org/2000/svg" d="m19 16.5c-.173 0-.345-.066-.477-.198l-3.825-3.825c-.264-.264-.264-.691 0-.954l3.825-3.825c.264-.264.691-.264.954 0l3.825 3.825c.264.264.264.691 0 .954l-3.825 3.825c-.132.132-.304.198-.477.198z" fill="#ffc107" data-original="#ffc107" style="" class=""/><path xmlns="http://www.w3.org/2000/svg" d="m4.5 23.55c-2.233 0-4.05-1.817-4.05-4.05s1.817-4.05 4.05-4.05 4.05 1.817 4.05 4.05-1.817 4.05-4.05 4.05z" fill="#2196f3" data-original="#2196f3" style="" class=""/><path xmlns="http://www.w3.org/2000/svg" d="m8.25 9h-7.5c-.414 0-.75-.336-.75-.75v-7.5c0-.414.336-.75.75-.75h7.5c.414 0 .75.336.75.75v7.5c0 .414-.336.75-.75.75zm-6.75-1.5h6v-6h-6z" fill="#000000" data-original="#000000" style="" class=""/><path xmlns="http://www.w3.org/2000/svg" d="m19 17c-.192 0-.384-.073-.53-.22l-4.25-4.25c-.293-.293-.293-.768 0-1.061l4.25-4.25c.293-.293.768-.293 1.061 0l4.25 4.25c.293.293.293.768 0 1.061l-4.25 4.25c-.147.147-.339.22-.531.22zm-3.189-5 3.189 3.189 3.189-3.189-3.189-3.189z" fill="#000000" data-original="#000000" style="" class=""/><path xmlns="http://www.w3.org/2000/svg" d="m4.5 24c-2.481 0-4.5-2.019-4.5-4.5s2.019-4.5 4.5-4.5 4.5 2.019 4.5 4.5-2.019 4.5-4.5 4.5zm0-7.5c-1.654 0-3 1.346-3 3s1.346 3 3 3 3-1.346 3-3-1.346-3-3-3z" fill="#000000" data-original="#000000" style="" class=""/><path xmlns="http://www.w3.org/2000/svg" d="m19 8.25c-.414 0-.75-.336-.75-.75v-2.25h-9.75c-.414 0-.75-.336-.75-.75s.336-.75.75-.75h10.5c.414 0 .75.336.75.75v3c0 .414-.336.75-.75.75z" fill="#000000" data-original="#000000" style="" class=""/><path xmlns="http://www.w3.org/2000/svg" d="m19 20.25h-10.5c-.414 0-.75-.336-.75-.75s.336-.75.75-.75h9.75v-2.25c0-.414.336-.75.75-.75s.75.336.75.75v3c0 .414-.336.75-.75.75z" fill="#000000" data-original="#000000" style="" class=""/></g></svg>
