<?xml version="1.0" standalone="no"?>
<!DOCTYPE svg PUBLIC "-//W3C//DTD SVG 20010904//EN"
 "http://www.w3.org/TR/2001/REC-SVG-20010904/DTD/svg10.dtd">
<svg version="1.0" xmlns="http://www.w3.org/2000/svg"
 width="400.000000pt" height="400.000000pt" viewBox="0 0 400.000000 400.000000"
 preserveAspectRatio="xMidYMid meet">

<g transform="translate(0.000000,400.000000) scale(0.100000,-0.100000)"
fill="#000000" stroke="none">
<path d="M1695 2989 c-123 -20 -281 -68 -324 -97 -13 -10 -35 -25 -49 -34 -65
-43 -136 -125 -167 -193 -63 -135 -69 -220 -25 -335 26 -66 41 -88 89 -132
103 -95 233 -141 454 -163 77 -8 76 -6 57 -120 -6 -33 -17 -112 -25 -175 -22
-172 -44 -308 -60 -365 -18 -65 -46 -262 -78 -543 -10 -83 6 -95 144 -107 l66
-6 7 -87 c4 -48 12 -105 17 -126 13 -50 9 -52 -98 -59 -98 -6 -129 -22 -62
-32 39 -5 651 -17 819 -16 119 1 375 12 394 18 48 14 -20 23 -171 23 -90 0
-163 2 -163 3 0 2 7 18 15 34 8 17 20 65 25 108 5 42 15 94 21 116 l12 39 31
-24 c36 -27 146 -76 229 -102 81 -25 88 -14 45 73 -20 37 -39 79 -42 93 -4 14
-21 60 -37 104 -23 60 -33 107 -40 195 -5 64 -14 152 -19 196 -6 44 -10 109
-10 145 0 36 -4 92 -10 125 -5 33 -16 200 -25 370 -14 289 -24 384 -59 575
-43 235 -134 378 -288 452 -98 47 -159 57 -378 63 -142 3 -198 0 -295 -16z
m407 -29 c163 -16 268 -59 355 -147 78 -78 131 -200 183 -415 6 -24 15 -179
20 -346 5 -166 14 -351 20 -410 6 -59 15 -161 20 -227 36 -453 45 -500 126
-672 24 -52 44 -97 44 -99 0 -5 -98 45 -130 67 -104 71 -155 81 -185 35 -8
-11 -19 -64 -25 -116 -21 -183 -98 -262 -138 -144 -10 28 -12 69 -8 150 l7
111 -98 6 c-54 3 -142 3 -196 0 -112 -7 -99 9 -116 -145 -18 -157 -49 -207
-103 -165 -19 14 -38 106 -38 179 0 27 -5 69 -11 93 -11 42 -13 44 -53 50 -24
4 -72 5 -107 3 l-64 -3 3 65 c2 36 10 101 18 145 8 44 19 112 24 150 38 281
52 367 65 415 8 30 15 65 15 78 0 13 9 62 20 109 27 109 51 314 39 329 -5 6
-39 14 -77 17 -37 3 -105 15 -152 27 -47 12 -104 26 -128 31 -24 5 -56 15 -70
23 -15 9 -40 22 -57 30 -36 17 -104 87 -132 136 -105 178 23 438 270 549 36
16 123 41 198 55 251 49 288 52 461 36z m228 -2350 c3 -65 11 -125 18 -138 7
-12 10 -27 7 -32 -10 -17 -334 -5 -351 13 -4 3 1 45 11 93 9 48 15 107 12 130
-2 24 -3 45 -2 46 2 2 70 3 152 3 l148 0 5 -115z"/>
<path d="M1890 2764 c-179 -33 -300 -136 -300 -256 0 -107 58 -167 180 -188
93 -16 313 -16 400 0 57 10 70 17 107 56 44 47 57 83 58 166 0 36 -6 52 -25
73 -46 50 -124 102 -186 123 -60 21 -186 35 -234 26z m-61 -86 c-17 -61 -10
-199 16 -317 l8 -34 -39 7 c-79 15 -128 44 -157 92 -50 83 -45 125 25 190 46
44 120 93 140 94 14 0 15 -5 7 -32z m352 -8 c72 -49 86 -70 95 -136 9 -72 -8
-117 -54 -145 -94 -59 -129 -60 -118 -6 26 124 26 243 1 310 -11 27 11 21 76
-23z"/>
<path d="M3340 1050 c0 -5 5 -32 11 -59 9 -42 8 -60 -6 -102 -9 -27 -15 -53
-12 -55 3 -3 18 12 33 32 23 30 29 47 28 84 -2 48 -27 110 -44 110 -6 0 -10
-4 -10 -10z"/>
<path d="M3490 998 c-1 -18 -7 -51 -15 -73 -16 -44 -12 -54 13 -39 31 20 41
144 12 144 -6 0 -10 -15 -10 -32z"/>
</g>
</svg>
