<?xml version="1.0"?>
<svg xmlns="http://www.w3.org/2000/svg" xmlns:xlink="http://www.w3.org/1999/xlink" xmlns:svgjs="http://svgjs.com/svgjs" version="1.1" width="512" height="512" x="0" y="0" viewBox="0 0 490.667 490.667" style="enable-background:new 0 0 512 512" xml:space="preserve"><g>
<circle xmlns="http://www.w3.org/2000/svg" style="" cx="245.333" cy="245.333" r="234.667" fill="#64b5f6" data-original="#64b5f6"/>
<g xmlns="http://www.w3.org/2000/svg">
	<path style="" d="M245.333,490.667C109.839,490.667,0,380.827,0,245.333S109.839,0,245.333,0   s245.333,109.839,245.333,245.333C490.514,380.764,380.764,490.514,245.333,490.667z M245.333,21.333   c-123.712,0-224,100.288-224,224s100.288,224,224,224s224-100.288,224-224C469.204,121.675,368.992,21.463,245.333,21.333z" fill="#1976d2" data-original="#1976d2"/>
	<path style="" d="M245.333,490.667c-77.76,0-138.667-107.776-138.667-245.333S167.573,0,245.333,0   S384,107.776,384,245.333S323.093,490.667,245.333,490.667z M245.333,21.333c-63.595,0-117.333,102.592-117.333,224   s53.739,224,117.333,224s117.333-102.592,117.333-224S308.928,21.333,245.333,21.333z" fill="#1976d2" data-original="#1976d2"/>
	<path style="" d="M245.333,490.667c-5.891,0-10.667-4.776-10.667-10.667V10.667C234.667,4.776,239.442,0,245.333,0   C251.224,0,256,4.776,256,10.667V480C256,485.891,251.224,490.667,245.333,490.667z" fill="#1976d2" data-original="#1976d2"/>
	<path style="" d="M480,256H10.667C4.776,256,0,251.224,0,245.333c0-5.891,4.776-10.667,10.667-10.667H480   c5.891,0,10.667,4.776,10.667,10.667C490.667,251.224,485.891,256,480,256z" fill="#1976d2" data-original="#1976d2"/>
	<path style="" d="M437.333,128h-384c-5.891,0-10.667-4.776-10.667-10.667s4.776-10.667,10.667-10.667h384   c5.891,0,10.667,4.776,10.667,10.667S443.224,128,437.333,128z" fill="#1976d2" data-original="#1976d2"/>
	<path style="" d="M437.333,384h-384c-5.891,0-10.667-4.776-10.667-10.667s4.776-10.667,10.667-10.667h384   c5.891,0,10.667,4.776,10.667,10.667S443.224,384,437.333,384z" fill="#1976d2" data-original="#1976d2"/>
</g>
<path xmlns="http://www.w3.org/2000/svg" d="M245.333,490.667C109.839,490.667,0,380.827,0,245.333S109.839,0,245.333,0s245.333,109.839,245.333,245.333  C490.514,380.764,380.764,490.514,245.333,490.667z M245.333,21.333c-123.712,0-224,100.288-224,224s100.288,224,224,224  s224-100.288,224-224C469.192,121.68,368.987,21.474,245.333,21.333z" fill="#000000" data-original="#000000" style=""/>
<path xmlns="http://www.w3.org/2000/svg" d="M245.333,490.667c-77.76,0-138.667-107.776-138.667-245.333S167.573,0,245.333,0S384,107.755,384,245.333  S323.093,490.667,245.333,490.667z M245.333,21.333c-63.595,0-117.333,102.592-117.333,224s53.739,224,117.333,224  s117.333-102.592,117.333-224S308.928,21.333,245.333,21.333z" fill="#000000" data-original="#000000" style=""/>
<path xmlns="http://www.w3.org/2000/svg" d="M245.333,490.667c-5.891,0-10.667-4.776-10.667-10.667V10.667C234.667,4.776,239.442,0,245.333,0  C251.224,0,256,4.776,256,10.667V480C256,485.891,251.224,490.667,245.333,490.667z" fill="#000000" data-original="#000000" style=""/>
<path xmlns="http://www.w3.org/2000/svg" d="M480,256H10.667C4.776,256,0,251.224,0,245.333c0-5.891,4.776-10.667,10.667-10.667H480c5.891,0,10.667,4.776,10.667,10.667  C490.667,251.224,485.891,256,480,256z" fill="#000000" data-original="#000000" style=""/>
<path xmlns="http://www.w3.org/2000/svg" d="M437.333,128h-384c-5.891,0-10.667-4.776-10.667-10.667s4.776-10.667,10.667-10.667h384c5.891,0,10.667,4.776,10.667,10.667  S443.224,128,437.333,128z" fill="#000000" data-original="#000000" style=""/>
<path xmlns="http://www.w3.org/2000/svg" d="M437.333,384h-384c-5.891,0-10.667-4.776-10.667-10.667s4.776-10.667,10.667-10.667h384c5.891,0,10.667,4.776,10.667,10.667  S443.224,384,437.333,384z" fill="#000000" data-original="#000000" style=""/>
<g xmlns="http://www.w3.org/2000/svg">
</g>
<g xmlns="http://www.w3.org/2000/svg">
</g>
<g xmlns="http://www.w3.org/2000/svg">
</g>
<g xmlns="http://www.w3.org/2000/svg">
</g>
<g xmlns="http://www.w3.org/2000/svg">
</g>
<g xmlns="http://www.w3.org/2000/svg">
</g>
<g xmlns="http://www.w3.org/2000/svg">
</g>
<g xmlns="http://www.w3.org/2000/svg">
</g>
<g xmlns="http://www.w3.org/2000/svg">
</g>
<g xmlns="http://www.w3.org/2000/svg">
</g>
<g xmlns="http://www.w3.org/2000/svg">
</g>
<g xmlns="http://www.w3.org/2000/svg">
</g>
<g xmlns="http://www.w3.org/2000/svg">
</g>
<g xmlns="http://www.w3.org/2000/svg">
</g>
<g xmlns="http://www.w3.org/2000/svg">
</g>
</g></svg>
