<?xml version="1.0"?>
<svg xmlns="http://www.w3.org/2000/svg" xmlns:xlink="http://www.w3.org/1999/xlink" xmlns:svgjs="http://svgjs.com/svgjs" version="1.1" width="512" height="512" x="0" y="0" viewBox="0 0 512 512" style="enable-background:new 0 0 512 512" xml:space="preserve"><g>
<g xmlns="http://www.w3.org/2000/svg">
	<path style="" d="M501.333,96H138.667C132.776,96,128,91.224,128,85.333c0-5.891,4.776-10.667,10.667-10.667h362.667   c5.891,0,10.667,4.776,10.667,10.667C512,91.224,507.224,96,501.333,96z" fill="#455a64" data-original="#455a64"/>
	<path style="" d="M501.333,266.667H138.667c-5.891,0-10.667-4.776-10.667-10.667c0-5.891,4.776-10.667,10.667-10.667   h362.667c5.891,0,10.667,4.776,10.667,10.667C512,261.891,507.224,266.667,501.333,266.667z" fill="#455a64" data-original="#455a64"/>
	<path style="" d="M501.333,437.333H138.667c-5.891,0-10.667-4.776-10.667-10.667c0-5.891,4.776-10.667,10.667-10.667   h362.667c5.891,0,10.667,4.776,10.667,10.667C512,432.558,507.224,437.333,501.333,437.333z" fill="#455a64" data-original="#455a64"/>
</g>
<g xmlns="http://www.w3.org/2000/svg">
	<circle style="" cx="53.333" cy="256" r="53.333" fill="#2196f3" data-original="#2196f3"/>
	<circle style="" cx="53.333" cy="426.667" r="53.333" fill="#2196f3" data-original="#2196f3"/>
	<circle style="" cx="53.333" cy="85.333" r="53.333" fill="#2196f3" data-original="#2196f3"/>
</g>
<path xmlns="http://www.w3.org/2000/svg" d="M501.333,96H138.667C132.776,96,128,91.224,128,85.333c0-5.891,4.776-10.667,10.667-10.667h362.667  c5.891,0,10.667,4.776,10.667,10.667C512,91.224,507.224,96,501.333,96z" fill="#000000" data-original="#000000" style=""/>
<path xmlns="http://www.w3.org/2000/svg" d="M501.333,266.667H138.667c-5.891,0-10.667-4.776-10.667-10.667c0-5.891,4.776-10.667,10.667-10.667h362.667  c5.891,0,10.667,4.776,10.667,10.667C512,261.891,507.224,266.667,501.333,266.667z" fill="#000000" data-original="#000000" style=""/>
<path xmlns="http://www.w3.org/2000/svg" d="M501.333,437.333H138.667c-5.891,0-10.667-4.776-10.667-10.667c0-5.891,4.776-10.667,10.667-10.667h362.667  c5.891,0,10.667,4.776,10.667,10.667C512,432.558,507.224,437.333,501.333,437.333z" fill="#000000" data-original="#000000" style=""/>
<path xmlns="http://www.w3.org/2000/svg" d="M53.333,309.333C23.878,309.333,0,285.455,0,256c0-29.455,23.878-53.333,53.333-53.333s53.333,23.878,53.333,53.333  C106.667,285.455,82.789,309.333,53.333,309.333z M53.333,224c-17.673,0-32,14.327-32,32s14.327,32,32,32s32-14.327,32-32  S71.006,224,53.333,224z" fill="#000000" data-original="#000000" style=""/>
<path xmlns="http://www.w3.org/2000/svg" d="M53.333,480C23.878,480,0,456.122,0,426.667s23.878-53.333,53.333-53.333s53.333,23.878,53.333,53.333  S82.789,480,53.333,480z M53.333,394.667c-17.673,0-32,14.327-32,32s14.327,32,32,32s32-14.327,32-32S71.006,394.667,53.333,394.667  z" fill="#000000" data-original="#000000" style=""/>
<path xmlns="http://www.w3.org/2000/svg" d="M53.333,138.667C23.878,138.667,0,114.789,0,85.333S23.878,32,53.333,32s53.333,23.878,53.333,53.333  S82.789,138.667,53.333,138.667z M53.333,53.333c-17.673,0-32,14.327-32,32s14.327,32,32,32s32-14.327,32-32  S71.006,53.333,53.333,53.333z" fill="#000000" data-original="#000000" style=""/>
<g xmlns="http://www.w3.org/2000/svg">
</g>
<g xmlns="http://www.w3.org/2000/svg">
</g>
<g xmlns="http://www.w3.org/2000/svg">
</g>
<g xmlns="http://www.w3.org/2000/svg">
</g>
<g xmlns="http://www.w3.org/2000/svg">
</g>
<g xmlns="http://www.w3.org/2000/svg">
</g>
<g xmlns="http://www.w3.org/2000/svg">
</g>
<g xmlns="http://www.w3.org/2000/svg">
</g>
<g xmlns="http://www.w3.org/2000/svg">
</g>
<g xmlns="http://www.w3.org/2000/svg">
</g>
<g xmlns="http://www.w3.org/2000/svg">
</g>
<g xmlns="http://www.w3.org/2000/svg">
</g>
<g xmlns="http://www.w3.org/2000/svg">
</g>
<g xmlns="http://www.w3.org/2000/svg">
</g>
<g xmlns="http://www.w3.org/2000/svg">
</g>
</g></svg>
