<?xml version="1.0"?>
<svg xmlns="http://www.w3.org/2000/svg" xmlns:xlink="http://www.w3.org/1999/xlink" xmlns:svgjs="http://svgjs.com/svgjs" version="1.1" width="512" height="512" x="0" y="0" viewBox="0 0 511.984 511.984" style="enable-background:new 0 0 512 512" xml:space="preserve"><g>
<path xmlns="http://www.w3.org/2000/svg" style="" d="M410.119,119.63l-134.586,29.917V71.144L418.69,39.402c10.753-2.063,17.815-12.459,15.752-23.211  S421.983-1.625,411.23,0.439c-0.357,0.079-0.714,0.159-1.071,0.238L251.449,35.99c-9.046,1.984-15.514,9.999-15.554,19.283v313.85  c-17.974-10.753-38.567-16.387-59.516-16.268c-49.081-4.682-93.004,30.472-99.194,79.355c6.19,48.883,50.113,84.037,99.194,79.355  c49.081,4.682,93.004-30.472,99.194-79.355V190.177l143.157-31.742c10.753-2.063,17.815-12.459,15.752-23.211  c-2.063-10.753-12.459-17.815-23.211-15.752c-0.357,0.079-0.714,0.159-1.071,0.238v-0.079H410.119z" fill="#ffc107" data-original="#ffc107"/>
<path xmlns="http://www.w3.org/2000/svg" d="M176.339,511.566c-49.081,4.682-93.004-30.472-99.194-79.355c6.19-48.883,50.113-84.037,99.194-79.355  c49.081-4.682,93.004,30.472,99.194,79.355C269.343,481.133,225.42,516.248,176.339,511.566z M176.339,392.533  c-32.258,0-59.516,18.172-59.516,39.678c0,21.505,27.259,39.678,59.516,39.678s59.516-18.172,59.516-39.678  C235.855,410.705,208.597,392.533,176.339,392.533z" fill="#000000" data-original="#000000" style=""/>
<path xmlns="http://www.w3.org/2000/svg" d="M255.694,452.049c-10.951,0-19.839-8.888-19.839-19.839V55.273c0-9.285,6.467-17.339,15.554-19.363l158.71-35.313  C420.753-2.061,431.506,4.406,434.204,15c2.698,10.594-3.809,21.386-14.403,24.084c-0.357,0.079-0.714,0.159-1.071,0.238  L275.533,71.144V432.21C275.533,443.161,266.645,452.049,255.694,452.049z" fill="#000000" data-original="#000000" style=""/>
<path xmlns="http://www.w3.org/2000/svg" d="M255.694,194.145c-10.951,0-19.839-8.927-19.799-19.878c0-9.285,6.467-17.299,15.514-19.323l158.71-35.313  c10.634-2.658,21.386,3.809,24.084,14.403c2.658,10.634-3.809,21.386-14.403,24.084c-0.357,0.079-0.714,0.159-1.071,0.238  l-158.71,35.313C258.59,193.986,257.122,194.145,255.694,194.145z" fill="#000000" data-original="#000000" style=""/>
<g xmlns="http://www.w3.org/2000/svg">
</g>
<g xmlns="http://www.w3.org/2000/svg">
</g>
<g xmlns="http://www.w3.org/2000/svg">
</g>
<g xmlns="http://www.w3.org/2000/svg">
</g>
<g xmlns="http://www.w3.org/2000/svg">
</g>
<g xmlns="http://www.w3.org/2000/svg">
</g>
<g xmlns="http://www.w3.org/2000/svg">
</g>
<g xmlns="http://www.w3.org/2000/svg">
</g>
<g xmlns="http://www.w3.org/2000/svg">
</g>
<g xmlns="http://www.w3.org/2000/svg">
</g>
<g xmlns="http://www.w3.org/2000/svg">
</g>
<g xmlns="http://www.w3.org/2000/svg">
</g>
<g xmlns="http://www.w3.org/2000/svg">
</g>
<g xmlns="http://www.w3.org/2000/svg">
</g>
<g xmlns="http://www.w3.org/2000/svg">
</g>
</g></svg>
