<?xml version="1.0"?>
<svg xmlns="http://www.w3.org/2000/svg" xmlns:xlink="http://www.w3.org/1999/xlink" xmlns:svgjs="http://svgjs.com/svgjs" version="1.1" width="512" height="512" x="0" y="0" viewBox="0 0 24 24" style="enable-background:new 0 0 512 512" xml:space="preserve" class=""><g><path xmlns="http://www.w3.org/2000/svg" d="m17.25 23.25h-10.5v-18.25l5.25-4.25 5.25 4.25z" fill="#2196f3" data-original="#607d8b" style="" class=""/><path xmlns="http://www.w3.org/2000/svg" d="m23.25 23.25h-6.25v-11.5h4.25c1.105 0 2 .895 2 2z" fill="#ffc107" data-original="#90a4ae" style="" class=""/><path xmlns="http://www.w3.org/2000/svg" d="m7 23.25h-6.25v-9.5c0-1.105.895-2 2-2h4.25z" fill="#ffc107" data-original="#90a4ae" style="" class=""/><circle xmlns="http://www.w3.org/2000/svg" cx="12" cy="6" fill="#ffffff" r="1.5" data-original="#ffffff" style=""/><path xmlns="http://www.w3.org/2000/svg" d="m14.25 23.25h-4.5v-3.161c0-1.088.733-2.088 1.802-2.295 1.436-.279 2.698.819 2.698 2.206z" fill="#ffffff" data-original="#ffffff" style=""/><path xmlns="http://www.w3.org/2000/svg" d="m6.75 24c-.414 0-.75-.336-.75-.75v-18c0-.414.336-.75.75-.75s.75.336.75.75v18c0 .414-.336.75-.75.75z" fill="#000000" data-original="#000000" style="" class=""/><path xmlns="http://www.w3.org/2000/svg" d="m17.25 24c-.414 0-.75-.336-.75-.75v-18c0-.414.336-.75.75-.75s.75.336.75.75v18c0 .414-.336.75-.75.75z" fill="#000000" data-original="#000000" style="" class=""/><path xmlns="http://www.w3.org/2000/svg" d="m19.25 7.25c-.163 0-.328-.053-.465-.163l-6.785-5.38-6.784 5.38c-.324.258-.797.204-1.053-.121-.258-.324-.204-.796.121-1.053l7.25-5.75c.272-.217.659-.217.932 0l7.25 5.75c.325.257.379.729.122 1.053-.149.187-.367.284-.588.284z" fill="#000000" data-original="#000000" style="" class=""/><path xmlns="http://www.w3.org/2000/svg" d="m23.25 24h-22.5c-.414 0-.75-.336-.75-.75v-9.5c0-1.517 1.233-2.75 2.75-2.75h3.75c.414 0 .75.336.75.75s-.336.75-.75.75h-3.75c-.689 0-1.25.561-1.25 1.25v8.75h21v-8.75c0-.689-.561-1.25-1.25-1.25h-3.75c-.414 0-.75-.336-.75-.75s.336-.75.75-.75h3.75c1.517 0 2.75 1.233 2.75 2.75v9.5c0 .414-.336.75-.75.75z" fill="#000000" data-original="#000000" style="" class=""/><path xmlns="http://www.w3.org/2000/svg" d="m12 8c-1.103 0-2-.897-2-2s.897-2 2-2 2 .897 2 2-.897 2-2 2zm0-2.5c-.276 0-.5.224-.5.5s.224.5.5.5.5-.224.5-.5-.224-.5-.5-.5z" fill="#000000" data-original="#000000" style="" class=""/><path xmlns="http://www.w3.org/2000/svg" d="m14.25 24h-4.5c-.414 0-.75-.336-.75-.75v-3.25c0-1.654 1.346-3 3-3s3 1.346 3 3v3.25c0 .414-.336.75-.75.75zm-3.75-1.5h3v-2.5c0-.827-.673-1.5-1.5-1.5s-1.5.673-1.5 1.5z" fill="#000000" data-original="#000000" style="" class=""/><path xmlns="http://www.w3.org/2000/svg" d="m4.25 16h-1.5c-.414 0-.75-.336-.75-.75s.336-.75.75-.75h1.5c.414 0 .75.336.75.75s-.336.75-.75.75z" fill="#000000" data-original="#000000" style="" class=""/><path xmlns="http://www.w3.org/2000/svg" d="m14.25 15.5h-4.5c-.414 0-.75-.336-.75-.75s.336-.75.75-.75h4.5c.414 0 .75.336.75.75s-.336.75-.75.75z" fill="#000000" data-original="#000000" style="" class=""/><path xmlns="http://www.w3.org/2000/svg" d="m14.25 11.5h-4.5c-.414 0-.75-.336-.75-.75s.336-.75.75-.75h4.5c.414 0 .75.336.75.75s-.336.75-.75.75z" fill="#000000" data-original="#000000" style="" class=""/><path xmlns="http://www.w3.org/2000/svg" d="m4.25 20h-1.5c-.414 0-.75-.336-.75-.75s.336-.75.75-.75h1.5c.414 0 .75.336.75.75s-.336.75-.75.75z" fill="#000000" data-original="#000000" style="" class=""/><path xmlns="http://www.w3.org/2000/svg" d="m21.25 16h-1.5c-.414 0-.75-.336-.75-.75s.336-.75.75-.75h1.5c.414 0 .75.336.75.75s-.336.75-.75.75z" fill="#000000" data-original="#000000" style="" class=""/><path xmlns="http://www.w3.org/2000/svg" d="m21.25 20h-1.5c-.414 0-.75-.336-.75-.75s.336-.75.75-.75h1.5c.414 0 .75.336.75.75s-.336.75-.75.75z" fill="#000000" data-original="#000000" style="" class=""/></g></svg>
